<svg xmlns="http://www.w3.org/2000/svg" viewBox="0 -0.5 16 16" shape-rendering="crispEdges">
<metadata>Made with Pixels to Svg https://codepen.io/shshaw/pen/XbxvNj</metadata>
<path stroke="#000000" d="M3 1h2M11 1h2M2 2h1M5 2h1M10 2h1M13 2h1M1 3h1M6 3h4M14 3h1M0 4h1M15 4h1M0 5h1M15 5h1M0 6h1M2 6h1M13 6h1M15 6h1M1 7h1M3 7h1M12 7h1M14 7h1M3 8h1M12 8h1M3 9h1M12 9h1M4 10h1M11 10h1M4 11h1M11 11h1M4 12h1M11 12h1M5 13h1M10 13h1M6 14h4" />
<path stroke="#9d1818" d="M3 2h2M11 2h2M4 3h1M11 3h1M14 4h1M11 6h1M11 7h1M7 8h2M11 8h1M4 9h1M6 9h1M9 9h2M10 10h1M5 11h1M8 11h2M5 12h2M9 12h2M6 13h4" />
<path stroke="#fc5b5b" d="M2 3h1M12 3h1M1 4h2M10 4h1M12 4h1M5 5h1M9 5h2M4 6h1M5 7h4M6 8h1" />
<path stroke="#e62222" d="M3 3h1M13 3h1M3 4h1M13 4h1M1 5h2M6 5h1M13 5h1M1 6h1M5 6h6M4 7h1M9 7h2M4 8h2M9 8h2M5 9h1M7 9h2M5 10h5M6 11h2" />
<path stroke="#320b0b" d="M5 3h1M10 3h1M4 4h1M6 4h4M11 4h1M3 5h1M7 5h2M12 5h1" />
<path stroke="#701313" d="M5 4h1M4 5h1M11 5h1M14 5h1M3 6h1M12 6h1M14 6h1M11 9h1M10 11h1M7 12h2" />
</svg>