<svg xmlns="http://www.w3.org/2000/svg" viewBox="0 -0.5 16 16" shape-rendering="crispEdges">
<metadata>Made with Pixels to Svg https://codepen.io/shshaw/pen/XbxvNj</metadata>
<path stroke="#000000" d="M0 0h2M0 1h1M2 1h2M1 2h1M4 2h2M1 3h1M6 3h1M2 4h1M6 4h1M2 5h1M6 5h1M3 6h3M7 6h1M6 7h1M8 7h1M7 8h1M9 8h1M8 9h1M10 9h1M9 10h1M11 10h3M10 11h1M14 11h1M10 12h1M15 12h1M10 13h1M15 13h1M11 14h1M14 14h1M12 15h2" />
<path stroke="#75d72c" d="M1 1h1M2 2h2M2 3h1M13 11h1M14 12h1M11 13h1M12 14h1" />
<path stroke="#4b8c1c" d="M3 3h2M3 4h1M12 11h1M11 12h1M13 12h1M12 13h1M14 13h1M13 14h1" />
<path stroke="#2b550d" d="M5 3h1M4 4h2M3 5h2M11 11h1M12 12h1M13 13h1" />
<path stroke="#1b2c0f" d="M5 5h1" />
<path stroke="#4c2e19" d="M6 6h1M7 7h1M8 8h1M9 9h1M10 10h1" />
</svg>