<svg xmlns="http://www.w3.org/2000/svg" viewBox="0 -0.5 16 16" shape-rendering="crispEdges">
<metadata>Made with Pixels to Svg https://codepen.io/shshaw/pen/XbxvNj</metadata>
<path stroke="#000000" d="M0 0h4M0 1h1M4 1h1M0 2h1M5 2h1M0 3h1M5 3h1M1 4h1M5 4h1M2 5h3M6 5h1M5 6h1M7 6h1M6 7h1M8 7h1M7 8h1M9 8h2M8 9h1M11 9h2M8 10h1M13 10h1M9 11h1M14 11h1M9 12h1M14 12h1M10 13h1M15 13h1M11 14h2M15 14h1M13 15h3" />
<path stroke="#fff542" d="M1 1h1M2 2h1M10 9h1M11 10h2" />
<path stroke="#ffd145" d="M2 1h1M1 2h1M3 2h1M2 3h2M10 10h1M10 11h2" />
<path stroke="#cb8f18" d="M3 1h1M4 2h1M1 3h1M2 4h1M9 9h1M9 10h1M12 11h2M10 12h2" />
<path stroke="#b35f0e" d="M4 3h1M3 4h1M12 12h2M11 13h3" />
<path stroke="#79420c" d="M4 4h1M14 13h1M13 14h2" />
<path stroke="#b3b3b3" d="M5 5h1M6 6h1M7 7h1M8 8h1" />
</svg>