<svg xmlns="http://www.w3.org/2000/svg" viewBox="0 -0.5 16 16" shape-rendering="crispEdges">
<metadata>Made with Pixels to Svg https://codepen.io/shshaw/pen/XbxvNj</metadata>
<path stroke="#000000" d="M0 0h3M0 1h1M3 1h2M0 2h1M5 2h1M1 3h1M5 3h1M1 4h1M5 4h1M2 5h3M6 5h1M5 6h1M7 6h1M6 7h1M8 7h1M7 8h1M9 8h1M8 9h1M10 9h3M9 10h1M13 10h1M9 11h1M14 11h1M9 12h1M12 12h3M10 13h1M12 13h1M11 14h2" />
<path stroke="#d9d9d9" d="M1 1h2M1 2h1M12 10h1M13 11h1M10 12h1M11 13h1" />
<path stroke="#b3b3b3" d="M2 2h2M2 3h1M11 10h1M10 11h1M12 11h1M11 12h1" />
<path stroke="#848484" d="M4 2h1M3 3h2M2 4h2M10 10h1M11 11h1" />
<path stroke="#4a4a4a" d="M4 4h1" />
<path stroke="#9d1818" d="M5 5h1M6 6h1M7 7h1M8 8h1M9 9h1" />
</svg>