<svg xmlns="http://www.w3.org/2000/svg" viewBox="0 -0.5 16 16" shape-rendering="crispEdges">
<metadata>Made with Pixels to Svg https://codepen.io/shshaw/pen/XbxvNj</metadata>
<path stroke="#000000" d="M4 1h2M3 2h1M6 2h1M2 3h1M6 3h1M1 4h1M7 4h1M1 5h1M8 5h1M2 6h2M9 6h1M4 7h1M10 7h1M5 8h1M11 8h1M6 9h1M12 9h2M7 10h1M14 10h1M8 11h1M14 11h1M9 12h1M13 12h1M9 13h1M12 13h1M10 14h2" />
<path stroke="#ffffff" d="M4 2h1M4 3h2M4 4h2M5 5h2M6 6h2M7 7h2M8 8h2M9 9h2M10 10h3M11 11h3" />
<path stroke="#d9d9d9" d="M5 2h1M2 4h2M6 4h1M2 5h3M7 5h1M5 6h1M8 6h1M6 7h1M9 7h1M7 8h1M10 8h1M8 9h1M11 9h1M9 10h1M13 10h1M10 11h1M10 12h2M10 13h2" />
<path stroke="#848484" d="M3 3h1M4 6h1M5 7h1M6 8h1M7 9h1M8 10h1M9 11h1M12 12h1" />
</svg>