<svg xmlns="http://www.w3.org/2000/svg" viewBox="0 -0.5 16 16" shape-rendering="crispEdges">
<metadata>Made with Pixels to Svg https://codepen.io/shshaw/pen/XbxvNj</metadata>
<path stroke="#040404" d="M4 0h9M3 1h1M13 1h1M2 2h1M13 2h1M2 3h1M13 3h1M2 4h1M13 4h1M2 5h1M13 5h1M2 6h1M13 6h1M2 7h1M13 7h1M2 8h1M13 8h1M2 9h1M13 9h1M2 10h1M13 10h1M2 11h1M13 11h1M2 12h1M13 12h1M2 13h1M13 13h1M2 14h1M13 14h1M3 15h10" />
<path stroke="#4c2e19" d="M4 1h1M4 11h1M3 13h1M4 14h1M6 14h1" />
<path stroke="#714627" d="M5 1h6M4 2h1M4 3h1M12 3h1M4 4h1M12 4h1M4 5h1M12 5h1M4 6h1M12 6h1M4 7h1M12 7h1M4 8h1M12 8h1M4 9h1M12 9h1M4 10h1M5 11h6M7 14h4" />
<path stroke="#848484" d="M11 1h1M12 2h1M12 10h1M11 11h1M11 14h1" />
<path stroke="#d9d9d9" d="M12 1h1M12 11h1M12 14h1" />
<path stroke="#342214" d="M3 2h1M5 2h7M3 3h1M5 3h3M9 3h3M3 4h1M5 4h2M8 4h1M10 4h2M3 5h1M5 5h1M7 5h3M11 5h1M3 6h1M5 6h2M8 6h1M10 6h2M3 7h1M5 7h1M7 7h3M11 7h1M3 8h1M5 8h2M8 8h1M10 8h2M3 9h1M5 9h3M9 9h3M3 10h1M5 10h7M3 11h1M3 12h1M12 12h1M3 14h1" />
<path stroke="#9b6742" d="M8 3h1M7 4h1M9 4h1M6 5h1M10 5h1M7 6h1M9 6h1M6 7h1M10 7h1M7 8h1M9 8h1M8 9h1" />
<path stroke="#c0813e" d="M4 12h1" />
<path stroke="#e0a861" d="M5 12h7M4 13h1" />
<path stroke="#9d1818" d="M5 13h1" />
<path stroke="#f1c085" d="M6 13h6" />
<path stroke="#4a4a4a" d="M12 13h1" />
<path stroke="#e62222" d="M5 14h1" />
</svg>