<svg xmlns="http://www.w3.org/2000/svg" viewBox="0 -0.5 16 16" shape-rendering="crispEdges">
<metadata>Made with Pixels to Svg https://codepen.io/shshaw/pen/XbxvNj</metadata>
<path stroke="#030303" d="M2 1h4M9 1h4M1 2h1M6 2h1M8 2h1M13 2h1M1 3h1M7 3h1M13 3h2M0 4h1M14 4h1M0 5h1M14 5h1M0 6h1M14 6h1M0 7h1M14 7h1M0 8h1M14 8h1M0 9h1M14 9h1M0 10h1M14 10h1M0 11h1M14 11h1M0 12h1M14 12h1M1 13h5M9 13h5M6 14h3" />
<path stroke="#c0813e" d="M2 2h1M12 2h1M2 3h1M6 3h1M8 3h1M10 3h1M12 3h1M2 4h1M12 4h1M2 5h1M5 5h1M9 5h1M12 5h1M2 6h1M12 6h1M2 7h1M6 7h1M8 7h1M12 7h1M2 8h1M12 8h1M2 9h1M4 9h1M8 9h1M12 9h1M2 10h1M12 10h1M3 11h1M11 11h1" />
<path stroke="#f1c085" d="M3 2h3M9 2h3" />
<path stroke="#e0a861" d="M3 3h1M11 3h1M3 4h4M8 4h4M3 5h1M11 5h1M3 6h4M8 6h4M3 7h1M11 7h1M3 8h4M8 8h4M3 9h1M11 9h1M3 10h4M8 10h4" />
<path stroke="#885f33" d="M4 3h2M9 3h1M4 5h1M6 5h1M8 5h1M10 5h1M4 7h2M9 7h2M5 9h2M9 9h2M2 11h1M4 11h3M8 11h3M12 11h1" />
<path stroke="#b35f0e" d="M1 4h1M13 4h1M2 12h1M12 12h1" />
<path stroke="#9d1818" d="M7 4h1M7 5h1M7 6h1M7 7h1M7 8h1M7 9h1M7 10h1" />
<path stroke="#666666" d="M1 5h1M13 5h1M1 6h1M13 6h1M1 7h1M13 7h1M1 8h1M13 8h1M1 9h1M13 9h1M1 10h1M13 10h1M6 12h1M8 12h1M11 12h1" />
<path stroke="#cb8f18" d="M1 11h1M13 11h1" />
<path stroke="#e62222" d="M7 11h1M7 12h1M7 13h1" />
<path stroke="#ffd145" d="M1 12h1M13 12h1" />
<path stroke="#848484" d="M3 12h3M9 12h2" />
<path stroke="#b3b3b3" d="M6 13h1M8 13h1" />
</svg>