<svg xmlns="http://www.w3.org/2000/svg" viewBox="0 -0.5 16 16" shape-rendering="crispEdges">
<metadata>Made with Pixels to Svg https://codepen.io/shshaw/pen/XbxvNj</metadata>
<path stroke="#000000" d="M10 3h3M9 4h1M13 4h2M8 5h1M15 5h1M8 6h1M15 6h1M6 7h2M15 7h1M3 8h3M15 8h1M2 9h1M15 9h1M1 10h1M15 10h1M1 11h1M15 11h1M1 12h1M15 12h1M2 13h13" />
<path stroke="#ffd145" d="M10 4h3M10 5h1M8 7h1M11 7h2M6 8h1M9 8h1M11 8h3M10 9h4M2 10h2M8 10h5M5 11h6" />
<path stroke="#ffffff" d="M9 5h1M14 5h1M10 6h5M7 8h1M10 8h1M3 9h3M7 9h2M4 10h3" />
<path stroke="#b35f0e" d="M11 5h3M9 6h1M10 7h1M14 7h1M8 8h1M14 8h1M6 9h1M9 9h1M14 9h1M7 10h1M14 10h1M2 11h1M14 11h1M2 12h13" />
<path stroke="#cb8f18" d="M9 7h1M13 7h1M13 10h1M3 11h2M11 11h3" />
</svg>