<svg xmlns="http://www.w3.org/2000/svg" viewBox="0 -0.5 16 16" shape-rendering="crispEdges">
<metadata>Made with Pixels to Svg https://codepen.io/shshaw/pen/XbxvNj</metadata>
<path stroke="#000000" d="M3 0h2M2 1h1M4 1h1M1 2h1M4 2h2M1 3h1M3 3h2M6 3h1M0 4h1M3 4h1M5 4h1M7 4h1M0 5h1M3 5h1M6 5h1M8 5h1M0 6h1M3 6h1M7 6h1M9 6h1M0 7h1M4 7h1M8 7h1M10 7h1M0 8h1M4 8h1M9 8h1M11 8h1M1 9h1M5 9h1M10 9h1M12 9h1M1 10h1M6 10h1M11 10h1M13 10h1M1 11h3M7 11h2M12 11h4M4 12h1M9 12h4M15 12h1M4 13h1M14 13h1M4 14h3M12 14h2M7 15h5" />
<path stroke="#666666" d="M3 1h1M7 5h1M8 6h1M9 7h1M10 8h1M13 12h1" />
<path stroke="#4a4a4a" d="M2 2h1M6 4h1M2 9h2M11 9h1M4 10h1M5 11h1M6 12h1M14 12h1M6 13h1" />
<path stroke="#252525" d="M3 2h1M5 3h1M4 9h1M5 10h1M12 10h1M6 11h1M13 13h1" />
<path stroke="#e62222" d="M2 3h1M1 4h1M1 5h1" />
<path stroke="#9d1818" d="M2 4h1M2 5h1M1 6h1M1 7h1M2 8h1M7 12h2M8 13h4" />
<path stroke="#701313" d="M2 6h1M2 7h2M1 8h1M3 8h1M7 13h1M12 13h1M7 14h5" />
<path stroke="#ffffff" d="M2 10h1M5 13h1" />
<path stroke="#b3b3b3" d="M3 10h1M4 11h1M5 12h1" />
</svg>