<svg xmlns="http://www.w3.org/2000/svg" viewBox="0 -0.5 16 16" shape-rendering="crispEdges">
<metadata>Made with Pixels to Svg https://codepen.io/shshaw/pen/XbxvNj</metadata>
<path stroke="#000000" d="M3 1h4M2 2h1M7 2h1M1 3h1M8 3h1M0 4h1M9 4h1M0 5h1M5 5h1M10 5h1M0 6h1M4 6h1M6 6h1M11 6h1M0 7h1M5 7h1M7 7h1M12 7h1M1 8h1M6 8h1M8 8h1M13 8h1M2 9h1M5 9h1M9 9h1M14 9h1M3 10h2M10 10h1M15 10h1M11 11h1M15 11h1M12 12h1M14 12h1M13 13h1" />
<path stroke="#573379" d="M3 2h1M3 3h1M6 3h2M3 4h2M6 4h1M3 5h1M1 6h1M9 6h2M1 7h1M8 7h2M4 8h1M3 9h1M12 9h2M11 10h2" />
<path stroke="#ffffff" d="M4 2h2M5 3h1M1 4h2M7 4h2M2 5h1M8 5h1M2 7h1M10 7h2M2 8h1M11 8h1M13 10h2" />
<path stroke="#7e32c2" d="M6 2h1M2 3h1M9 5h1M3 8h1M12 8h1" />
<path stroke="#b3b3b3" d="M4 3h1M5 4h1M1 5h1M7 5h1M7 6h2M3 7h2M10 8h1M4 9h1M10 9h2M13 11h2M13 12h1" />
<path stroke="#21152c" d="M4 5h1M5 8h1" />
<path stroke="#331c4a" d="M6 5h1M2 6h2M9 8h1M12 11h1" />
</svg>