<svg xmlns="http://www.w3.org/2000/svg" viewBox="0 -0.5 16 16" shape-rendering="crispEdges">
<metadata>Made with Pixels to Svg https://codepen.io/shshaw/pen/XbxvNj</metadata>
<path stroke="#000000" d="M7 2h1M7 3h1M7 4h1M5 5h2M8 5h2M4 6h1M10 6h1M4 7h1M10 7h1M4 8h1M10 8h1M4 9h1M10 9h1M4 10h1M10 10h1M4 11h1M10 11h1M4 12h1M10 12h1M4 13h1M10 13h1M4 14h1M10 14h1M5 15h5" />
<path stroke="#4a4a4a" d="M7 5h1M7 6h1" />
<path stroke="#ffffff" d="M5 6h2M8 6h2M6 7h3" />
<path stroke="#b3b3b3" d="M5 7h1M9 7h1M6 8h3M6 9h3M6 10h3M6 11h3M6 12h3M6 13h3M6 14h3" />
<path stroke="#848484" d="M5 8h1M9 8h1M5 9h1M9 9h1M5 10h1M9 10h1M5 11h1M9 11h1M5 12h1M9 12h1M5 13h1M9 13h1M5 14h1M9 14h1" />
</svg>