<svg xmlns="http://www.w3.org/2000/svg" viewBox="0 -0.5 16 16" shape-rendering="crispEdges">
<metadata>Made with Pixels to Svg https://codepen.io/shshaw/pen/XbxvNj</metadata>
<path stroke="#000000" d="M2 0h4M1 1h1M5 1h1M0 2h1M5 2h1M0 3h1M5 3h1M0 4h1M6 4h4M0 5h4M10 5h1M4 6h1M11 6h1M4 7h1M11 7h1M4 8h1M11 8h1M4 9h1M11 9h1M5 10h1M12 10h4M6 11h4M15 11h1M10 12h1M15 12h1M10 13h1M15 13h1M10 14h1M14 14h1M10 15h4" />
<path stroke="#75d72c" d="M2 1h1M3 2h1M4 3h1M13 11h1M14 12h1" />
<path stroke="#b8ff83" d="M3 1h2M4 2h1M14 11h1" />
<path stroke="#2b550d" d="M1 2h1M2 3h1M1 4h1M3 4h1M12 11h1M11 12h1M13 12h1M12 13h1M14 13h1M11 14h1M13 14h1" />
<path stroke="#4b8c1c" d="M2 2h1M1 3h1M3 3h1M2 4h1M4 4h1M11 11h1M12 12h1M11 13h1M13 13h1M12 14h1" />
<path stroke="#b3b3b3" d="M5 4h1M11 10h1" />
<path stroke="#848484" d="M4 5h1M10 11h1" />
<path stroke="#701313" d="M5 5h1M5 6h1M5 7h1M5 8h2M10 8h1M6 9h5" />
<path stroke="#9d1818" d="M6 5h1M6 6h1M6 7h2M7 8h3" />
<path stroke="#e62222" d="M7 5h1M7 6h2M8 7h3" />
<path stroke="#ffa3a3" d="M8 5h2M9 6h2" />
<path stroke="#320b0b" d="M5 9h1M6 10h5" />
</svg>