<svg xmlns="http://www.w3.org/2000/svg" viewBox="0 -0.5 16 16" shape-rendering="crispEdges">
<metadata>Made with Pixels to Svg https://codepen.io/shshaw/pen/XbxvNj</metadata>
<path stroke="#000000" d="M3 1h5M2 2h1M8 2h1M1 3h1M9 3h1M1 4h1M9 4h1M1 5h1M8 5h5M1 6h1M7 6h1M13 6h1M1 7h1M6 7h1M14 7h1M1 8h1M6 8h1M14 8h1M1 9h1M6 9h1M14 9h1M1 10h1M6 10h1M14 10h1M1 11h1M6 11h1M14 11h1M2 12h1M6 12h1M14 12h1M3 13h4M14 13h1M7 14h1M13 14h1M8 15h5" />
<path stroke="#f1c085" d="M3 2h5M2 3h1M6 3h1M8 3h1M2 4h1M5 4h1M8 4h1M4 5h1M8 6h5M4 7h1M7 7h1M11 7h1M13 7h1M7 8h1M10 8h1M13 8h1M4 9h1M9 9h1M4 11h1M9 11h1M9 13h1" />
<path stroke="#9b6742" d="M3 3h3M7 3h1M3 4h2M6 4h2M3 5h1M5 5h3M2 6h1M4 6h1M3 7h1M5 7h1M8 7h3M12 7h1M2 8h1M4 8h1M8 8h2M11 8h2M3 9h1M5 9h1M8 9h1M10 9h3M2 10h1M4 10h1M7 10h1M9 10h1M13 10h1M3 11h1M5 11h1M8 11h1M10 11h3M7 12h1M9 12h1M13 12h1M8 13h1M10 13h3" />
<path stroke="#4c2e19" d="M2 5h1M3 6h1M5 6h2M2 7h1M3 8h1M5 8h1M2 9h1M7 9h1M13 9h1M3 10h1M5 10h1M8 10h1M10 10h3M2 11h1M7 11h1M13 11h1M3 12h3M8 12h1M10 12h3M7 13h1M13 13h1M8 14h5" />
</svg>