<svg xmlns="http://www.w3.org/2000/svg" viewBox="0 -0.5 16 16" shape-rendering="crispEdges">
<metadata>Made with Pixels to Svg https://codepen.io/shshaw/pen/XbxvNj</metadata>
<path stroke="#000000" d="M5 0h6M3 1h2M11 1h2M2 2h1M13 2h1M1 3h1M14 3h1M1 4h1M14 4h1M0 5h1M15 5h1M0 6h1M15 6h1M0 7h1M15 7h1M0 8h1M15 8h1M0 9h1M15 9h1M0 10h1M15 10h1M1 11h1M14 11h1M1 12h1M14 12h1M2 13h1M13 13h1M3 14h2M11 14h2M5 15h6" />
<path stroke="#ffb136" d="M5 1h6M3 2h2M2 3h1M2 4h1M6 4h4M1 5h1M5 5h4M1 6h1M4 6h3M12 6h1M1 7h1M4 7h2M12 7h1M1 8h1M4 8h2M12 8h1M1 9h1M4 9h1M12 9h1M1 10h1M11 10h1M2 11h1M10 11h2M2 12h1M6 12h4M3 13h2M5 14h6" />
<path stroke="#fffffb" d="M5 2h1M3 3h2M3 4h1M2 5h1M11 7h1M11 8h1M11 9h1M10 10h1M7 11h3" />
<path stroke="#ffe95e" d="M6 2h5M5 3h1M10 3h3M12 4h1M3 5h1M9 5h2M12 5h2M2 6h1M7 6h5M13 6h1M2 7h1M6 7h5M13 7h1M2 8h1M6 8h5M13 8h1M2 9h1M5 9h6M13 9h1M2 10h2M5 10h5M12 10h2M3 11h1M6 11h1M12 11h1M3 12h3M10 12h3M5 13h6" />
<path stroke="#dc7200" d="M11 2h2M6 3h4M13 3h1M4 4h2M10 4h2M13 4h1M4 5h1M11 5h1M14 5h1M3 6h1M14 6h1M3 7h1M14 7h1M3 8h1M14 8h1M3 9h1M14 9h1M4 10h1M14 10h1M4 11h2M13 11h1M13 12h1M11 13h2" />
</svg>