<svg xmlns="http://www.w3.org/2000/svg" viewBox="0 -0.5 16 16" shape-rendering="crispEdges">
<metadata>Made with Pixels to Svg https://codepen.io/shshaw/pen/XbxvNj</metadata>
<path stroke="#000000" d="M3 3h5M2 4h1M8 4h1M1 5h1M8 5h5M1 6h1M7 6h1M13 6h1M1 7h1M6 7h1M14 7h1M2 8h1M6 8h1M14 8h1M3 9h4M14 9h1M7 10h1M13 10h1M8 11h5" />
<path stroke="#ffffff" d="M3 4h5M2 5h1M6 5h1M2 6h1M5 6h1M8 6h5M4 7h1M7 7h1M11 7h1M13 7h1M7 8h1M10 8h1M13 8h1M9 9h1" />
<path stroke="#b3b3b3" d="M3 5h3M7 5h1M3 6h2M6 6h1M3 7h1M5 7h1M8 7h3M12 7h1M8 8h2M11 8h2M8 9h1M10 9h3" />
<path stroke="#666666" d="M2 7h1M3 8h3M7 9h1M13 9h1M8 10h5" />
</svg>