<svg xmlns="http://www.w3.org/2000/svg" viewBox="0 -0.5 16 16" shape-rendering="crispEdges">
<metadata>Made with Pixels to Svg https://codepen.io/shshaw/pen/XbxvNj</metadata>
<path stroke="#000000" d="M5 2h5M4 3h1M10 3h1M3 4h1M11 4h1M3 5h1M11 5h1M3 6h1M11 6h1M3 7h1M11 7h1M3 8h1M11 8h1M3 9h1M11 9h1M3 10h1M11 10h1M4 11h1M10 11h1M5 12h5" />
<path stroke="#8dcbff" d="M5 3h5M4 4h1M8 4h1M10 4h1M4 5h1M7 5h1M10 5h1M6 6h1M6 8h1M6 10h1" />
<path stroke="#50a5eb" d="M5 4h3M9 4h1M5 5h2M8 5h2M5 6h1M7 6h3M4 7h1M6 7h1M10 7h1M5 8h1M7 8h3M4 9h1M6 9h1M10 9h1M5 10h1M7 10h3" />
<path stroke="#266ba8" d="M4 6h1M10 6h1M5 7h1M7 7h3M4 8h1M10 8h1M5 9h1M7 9h3M4 10h1M10 10h1M5 11h5" />
</svg>