<svg xmlns="http://www.w3.org/2000/svg" viewBox="0 -0.5 16 16" shape-rendering="crispEdges">
<metadata>Made with Pixels to Svg https://codepen.io/shshaw/pen/XbxvNj</metadata>
<path stroke="#000000" d="M5 2h6M3 3h2M11 3h2M2 4h1M13 4h1M1 5h1M14 5h1M0 6h1M15 6h1M0 7h1M15 7h1M0 8h1M15 8h1M0 9h1M15 9h1M0 10h1M15 10h1M1 11h1M14 11h1M2 12h1M13 12h1M3 13h2M11 13h2M5 14h6" />
<path stroke="#f88848" d="M5 3h6M3 4h2M6 4h1M12 4h1M2 5h1M5 5h1M7 5h1M9 5h2M13 5h1M1 6h1M3 6h1M1 7h1M4 7h2M9 7h1M12 7h1M1 8h1M3 8h1M8 8h1M10 8h2M1 9h1M5 10h2M10 10h1M4 11h1M11 11h1M6 12h1" />
<path stroke="#ce611f" d="M5 4h1M9 4h3M3 5h2M6 5h1M2 6h1M6 6h1M8 6h1M10 6h1M12 6h2M2 7h2M6 7h1M8 7h1M10 7h2M13 7h1M2 8h1M4 8h1M7 8h1M2 9h1M6 9h1M10 9h2M13 9h1M2 10h1M4 10h1M8 10h2M13 10h1M3 11h1M7 11h2M12 11h1M7 12h2M10 12h1" />
<path stroke="#370303" d="M7 4h1M11 5h1M4 6h1M7 6h1M9 6h1M5 8h1M9 8h1M12 8h1M3 9h1M7 9h1M11 10h1M5 11h1M9 11h1" />
<path stroke="#903c05" d="M8 4h1M8 5h1M12 5h1M5 6h1M11 6h1M7 7h1M6 8h1M13 8h1M4 9h2M8 9h2M12 9h1M3 10h1M7 10h1M12 10h1M6 11h1M10 11h1M5 12h1M9 12h1" />
<path stroke="#782d00" d="M14 6h1M14 7h1M14 8h1M14 9h1M1 10h1M14 10h1M2 11h1M13 11h1M3 12h2M11 12h2M5 13h6" />
</svg>