<svg xmlns="http://www.w3.org/2000/svg" viewBox="0 -0.5 16 16" shape-rendering="crispEdges">
<metadata>Made with Pixels to Svg https://codepen.io/shshaw/pen/XbxvNj</metadata>
<path stroke="#000000" d="M7 1h2M5 2h2M9 2h1M4 3h1M10 3h1M3 4h1M10 4h1M3 5h1M11 5h1M3 6h1M12 6h1M3 7h1M12 7h1M4 8h1M13 8h1M4 9h1M13 9h1M3 10h1M13 10h1M2 11h1M11 11h2M2 12h1M6 12h5M2 13h1M5 13h1M3 14h2" />
<path stroke="#f3f3f3" d="M7 2h1M6 3h3M4 4h2M4 5h1M10 5h1M7 6h1M10 6h2M10 7h2M7 8h1" />
<path stroke="#e5e5e5" d="M8 2h1M8 4h1M5 5h1M7 5h1M4 6h1M9 6h1M6 8h1M7 9h2" />
<path stroke="#767676" d="M5 3h1" />
<path stroke="#c8c8c8" d="M9 3h1M9 4h1" />
<path stroke="#c1c1c1" d="M6 4h1M6 5h1M8 5h2M7 7h1M9 9h1M8 10h2" />
<path stroke="#f2f2f2" d="M7 4h1" />
<path stroke="#d0d0d0" d="M5 6h2M6 7h1M9 7h1M9 8h3M10 9h2" />
<path stroke="#a4a4a4" d="M8 6h1M8 7h1" />
<path stroke="#bebebe" d="M4 7h2M8 8h1M12 8h1M6 9h1M10 10h1" />
<path stroke="#909090" d="M5 8h1" />
<path stroke="#868686" d="M5 9h1M12 9h1M6 10h2M11 10h2M7 11h4" />
<path stroke="#63463a" d="M4 10h1M3 11h1" />
<path stroke="#4b352b" d="M5 10h1M4 11h1M3 12h1" />
<path stroke="#39281f" d="M5 11h2M4 12h1" />
<path stroke="#281a14" d="M5 12h1M3 13h2" />
</svg>