<svg xmlns="http://www.w3.org/2000/svg" viewBox="0 -0.5 16 16" shape-rendering="crispEdges">
<metadata>Made with Pixels to Svg https://codepen.io/shshaw/pen/XbxvNj</metadata>
<path stroke="#000000" d="M5 1h5M3 2h2M10 2h2M2 3h1M12 3h1M1 4h1M13 4h1M0 5h1M14 5h1M0 6h1M14 6h1M0 7h1M14 7h1M1 8h1M13 8h1M2 9h1M12 9h1M3 10h1M11 10h1M4 11h1M10 11h1M5 12h1M9 12h1M6 13h1M8 13h1M7 14h1" />
<path stroke="#ffffff" d="M5 2h5M3 3h1M6 3h3M11 3h1M2 4h1M5 4h1M7 4h1M9 4h1M12 4h1M1 5h1M7 5h1M13 5h1M6 6h3M5 7h5M7 8h1M7 9h1" />
<path stroke="#ca95fa" d="M4 3h2M9 3h2M6 4h1M8 4h1M4 5h1M10 5h1M1 6h1M13 6h1M2 7h3M10 7h3M4 8h1M10 8h1M5 9h1M9 9h1M7 10h1M7 11h1M7 12h1" />
<path stroke="#9a5ad3" d="M3 4h2M10 4h2M2 5h2M5 5h2M8 5h2M11 5h2M3 6h1M11 6h1" />
<path stroke="#7e32c2" d="M2 6h1M4 6h2M9 6h2M12 6h1M1 7h1M13 7h1M5 8h1M9 8h1M4 9h1M6 9h1M8 9h1M10 9h1M5 10h2M8 10h2M6 11h1M8 11h1M7 13h1" />
<path stroke="#573379" d="M2 8h2M6 8h1M8 8h1M11 8h2M3 9h1M11 9h1M4 10h1M10 10h1M5 11h1M9 11h1M6 12h1M8 12h1" />
</svg>