<svg xmlns="http://www.w3.org/2000/svg" viewBox="0 -0.5 16 16" shape-rendering="crispEdges">
<metadata>Made with Pixels to Svg https://codepen.io/shshaw/pen/XbxvNj</metadata>
<path stroke="#000000" d="M5 2h6M4 3h1M11 3h1M4 4h1M11 4h1M4 5h1M11 5h1M4 6h1M11 6h1M4 7h1M11 7h1M4 8h1M11 8h1M4 9h1M11 9h1M4 10h1M11 10h1M4 11h1M11 11h1M4 12h1M11 12h1M5 13h6" />
<path stroke="#a9b5ff" d="M5 3h1M10 3h1M7 6h4M5 7h1M7 7h4M5 8h6M5 9h6M6 10h4M6 11h4" />
<path stroke="#647fed" d="M6 3h4M10 10h1M10 11h1M5 12h6" />
<path stroke="#a5b6ff" d="M5 4h1M8 4h3M5 5h1M7 5h4M5 6h1" />
<path stroke="#ffffff" d="M6 4h2M6 5h1M6 6h1M6 7h1" />
<path stroke="#6c7ee9" d="M5 10h1M5 11h1" />
</svg>