<svg xmlns="http://www.w3.org/2000/svg" viewBox="0 -0.5 16 16" shape-rendering="crispEdges">
<metadata>Made with Pixels to Svg https://codepen.io/shshaw/pen/XbxvNj</metadata>
<path stroke="#000000" d="M4 0h9M3 1h1M13 1h1M3 2h1M13 2h1M3 3h1M13 3h1M3 4h1M13 4h1M3 5h1M13 5h1M4 6h1M12 6h1M5 7h1M11 7h1M6 8h1M10 8h1M7 9h1M9 9h1M7 10h1M9 10h1M7 11h1M9 11h1M6 12h1M10 12h1M4 13h2M11 13h2M3 14h1M13 14h1M3 15h11" />
<path stroke="#a9b5ff" d="M4 1h1M12 1h1M4 2h1M7 2h6M4 3h1M6 3h6M6 13h2M4 14h2" />
<path stroke="#6c7ee9" d="M5 1h7M12 3h1M8 9h1M8 10h1M8 11h1M8 12h1M8 13h3M6 14h7" />
<path stroke="#ffffff" d="M5 2h2M5 3h1M5 4h1" />
<path stroke="#e62222" d="M4 4h1M10 4h2M4 5h6" />
<path stroke="#fc5b5b" d="M6 4h4" />
<path stroke="#9d1818" d="M12 4h1M10 5h2M5 6h6M6 7h4" />
<path stroke="#320b0b" d="M12 5h1M11 6h1M10 7h1M8 8h1" />
<path stroke="#171a2a" d="M7 8h1M9 8h1M7 12h1M9 12h1" />
</svg>