<svg xmlns="http://www.w3.org/2000/svg" viewBox="0 -0.5 16 16" shape-rendering="crispEdges">
<metadata>Made with Pixels to Svg https://codepen.io/shshaw/pen/XbxvNj</metadata>
<path stroke="#000000" d="M5 2h6M4 3h1M11 3h1M4 4h1M11 4h1M4 5h1M11 5h1M4 6h1M11 6h1M4 7h1M11 7h1M4 8h1M11 8h1M4 9h1M11 9h1M4 10h1M11 10h1M4 11h1M11 11h1M4 12h1M11 12h1M5 13h6" />
<path stroke="#647fed" d="M5 3h6M10 10h1M10 11h1M5 12h6" />
<path stroke="#a5b6ff" d="M5 4h6M5 5h6M5 6h1M10 6h1" />
<path stroke="#dadada" d="M6 6h4M5 8h1M10 9h1M5 10h1M5 11h1" />
<path stroke="#ffffff" d="M5 7h6M6 8h2M9 8h1M5 9h5M6 10h4" />
<path stroke="#b4b4b4" d="M8 8h1M10 8h1M6 11h3" />
<path stroke="#858585" d="M9 11h1" />
</svg>