<svg xmlns="http://www.w3.org/2000/svg" viewBox="0 -0.5 16 16" shape-rendering="crispEdges">
<metadata>Made with Pixels to Svg https://codepen.io/shshaw/pen/XbxvNj</metadata>
<path stroke="#000000" d="M1 0h3M1 1h1M4 1h2M1 2h1M6 2h1M0 3h2M7 3h1M0 4h1M8 4h1M1 5h1M9 5h3M2 6h1M12 6h1M3 7h1M11 7h1M4 8h1M10 8h1M5 9h1M11 9h1M5 10h1M8 10h1M12 10h3M5 11h1M7 11h1M9 11h1M15 11h1M6 12h1M10 12h1M13 12h3M10 13h1M12 13h1M10 14h1M12 14h1M11 15h2" />
<path stroke="#ff804f" d="M2 1h1M2 2h1M1 4h1M2 5h1" />
<path stroke="#e45219" d="M3 1h1M2 3h4M2 4h3M6 4h1M5 5h1M7 6h1" />
<path stroke="#252525" d="M3 2h1" />
<path stroke="#f0d4b4" d="M4 2h1" />
<path stroke="#a23f17" d="M5 2h1M6 3h1M5 4h1M3 5h2M6 5h2M8 7h1M8 8h1M9 9h1M10 10h1" />
<path stroke="#7b2f11" d="M7 4h1M8 5h1M5 6h2M8 6h1M7 7h1M9 7h1M9 8h1M10 9h1M11 10h1M11 11h1" />
<path stroke="#848484" d="M3 6h1M9 6h1M4 7h1M6 7h1M5 8h1M7 8h1M8 9h1M6 10h1M12 11h2M11 12h1M11 13h1" />
<path stroke="#d9d9d9" d="M4 6h1M10 6h2M5 7h1M6 8h1M7 9h1M9 10h1M6 11h1M10 11h1M14 11h1M11 14h1" />
<path stroke="#4a4a4a" d="M10 7h1M6 9h1M7 10h1M12 12h1" />
</svg>