<svg xmlns="http://www.w3.org/2000/svg" viewBox="0 -0.5 16 16" shape-rendering="crispEdges">
<metadata>Made with Pixels to Svg https://codepen.io/shshaw/pen/XbxvNj</metadata>
<path stroke="#000000" d="M2 1h4M1 2h1M6 2h1M10 2h4M1 3h1M6 3h1M9 3h1M14 3h1M1 4h1M6 4h1M9 4h1M14 4h1M2 5h1M5 5h1M9 5h1M14 5h1M3 6h1M6 6h1M9 6h1M13 6h1M4 7h1M7 7h1M10 7h1M13 7h1M5 8h1M8 8h1M11 8h1M13 8h1M6 9h1M8 9h1M10 9h1M13 9h1M6 10h1M9 10h1M12 10h1M6 11h1M11 11h1M7 12h1M11 12h1M8 13h1M11 13h1M8 14h1M12 14h1M9 15h4" />
<path stroke="#fc5b5b" d="M2 2h1M4 2h1M2 3h3M12 3h2" />
<path stroke="#ffa3a3" d="M3 2h1M5 2h1M11 3h1" />
<path stroke="#e62222" d="M5 3h1M10 3h1M2 4h3M10 4h4M11 5h2" />
<path stroke="#9d1818" d="M5 4h1M3 5h2M10 5h1M13 5h1M10 6h2" />
<path stroke="#2b550d" d="M4 6h1M5 7h1M11 7h1M6 8h1M12 8h1M7 10h1M10 11h1M9 12h1" />
<path stroke="#4b8c1c" d="M5 6h1M12 6h1M6 7h1M12 7h1M7 9h1M8 11h2" />
<path stroke="#75d72c" d="M7 8h1M11 9h1M8 10h1M10 10h1" />
<path stroke="#1b2c0f" d="M12 9h1M11 10h1M7 11h1M8 12h1M10 12h1M9 13h2M9 14h3" />
</svg>