<svg xmlns="http://www.w3.org/2000/svg" viewBox="0 -0.5 16 16" shape-rendering="crispEdges">
<metadata>Made with Pixels to Svg https://codepen.io/shshaw/pen/XbxvNj</metadata>
<path stroke="#000000" d="M11 0h3M2 1h2M10 1h1M14 1h1M1 2h1M4 2h1M9 2h1M15 2h1M0 3h1M5 3h1M9 3h1M15 3h1M0 4h1M5 4h1M9 4h1M15 4h1M1 5h1M4 5h1M10 5h1M14 5h1M2 6h1M4 6h1M9 6h1M12 6h2M2 7h1M4 7h1M8 7h1M11 7h1M2 8h1M4 8h1M7 8h1M10 8h1M2 9h1M5 9h1M7 9h1M9 9h1M3 10h1M6 10h1M9 10h1M4 11h1M9 11h1M4 12h1M8 12h1M4 13h1M7 13h1M3 14h1M7 14h1M3 15h4" />
<path stroke="#ffd145" d="M11 1h3M2 2h2M10 2h2M13 2h2M1 3h2M4 3h1M10 3h1M14 3h1M1 4h1M4 4h1M10 4h2M13 4h2M2 5h1M11 5h2" />
<path stroke="#e62222" d="M12 2h1M11 3h1M13 3h1M2 4h1" />
<path stroke="#fc5b5b" d="M3 3h1M12 3h1" />
<path stroke="#9d1818" d="M3 4h1M12 4h1" />
<path stroke="#cb8f18" d="M3 5h1M13 5h1" />
<path stroke="#4b8c1c" d="M3 6h1M10 6h1M3 7h1M9 7h1M8 9h1M6 11h2" />
<path stroke="#2b550d" d="M11 6h1M10 7h1M3 8h1M9 8h1M8 10h1M5 11h1M6 12h1" />
<path stroke="#75d72c" d="M8 8h1M4 9h1M5 10h1M7 10h1" />
<path stroke="#1b2c0f" d="M3 9h1M4 10h1M8 11h1M5 12h1M7 12h1M5 13h2M4 14h3" />
</svg>