<svg xmlns="http://www.w3.org/2000/svg" viewBox="0 -0.5 16 16" shape-rendering="crispEdges">
<metadata>Made with Pixels to Svg https://codepen.io/shshaw/pen/XbxvNj</metadata>
<path stroke="#000000" d="M8 0h2M7 1h1M9 1h1M6 2h1M8 2h1M3 3h3M8 3h4M2 4h1M12 4h1M1 5h1M13 5h1M1 6h1M13 6h1M0 7h1M14 7h1M0 8h1M14 8h1M0 9h1M14 9h1M0 10h1M14 10h1M1 11h1M13 11h1M1 12h1M13 12h1M2 13h1M12 13h1M3 14h1M7 14h1M11 14h1M4 15h3M8 15h3" />
<path stroke="#714627" d="M8 1h1M7 2h1M7 3h1M7 4h1" />
<path stroke="#320b0b" d="M6 3h1" />
<path stroke="#ffa3a3" d="M3 4h2M2 5h2" />
<path stroke="#fc5b5b" d="M5 4h1M4 5h3M2 6h5M2 7h4" />
<path stroke="#9d1818" d="M6 4h1M8 4h1M7 5h2M12 5h1M12 6h1M12 7h1M11 8h2M11 9h2M10 10h3M8 11h4M2 12h9M3 13h3" />
<path stroke="#e62222" d="M9 4h3M9 5h3M7 6h5M1 7h1M6 7h6M1 8h10M1 9h10M1 10h9M2 11h6" />
<path stroke="#701313" d="M13 7h1M13 8h1M13 9h1M13 10h1M12 11h1M11 12h2M6 13h6M4 14h3M8 14h3" />
</svg>