<svg xmlns="http://www.w3.org/2000/svg" viewBox="0 -0.5 16 16" shape-rendering="crispEdges">
<metadata>Made with Pixels to Svg https://codepen.io/shshaw/pen/XbxvNj</metadata>
<path stroke="#000000" d="M13 1h3M12 2h1M15 2h1M11 3h1M14 3h1M10 4h1M13 4h1M9 5h1M13 5h1M8 6h1M13 6h1M7 7h1M13 7h1M6 8h1M12 8h1M1 9h5M12 9h1M0 10h1M11 10h1M0 11h1M10 11h1M1 12h2M9 12h1M3 13h6" />
<path stroke="#79420c" d="M13 2h2" />
<path stroke="#252525" d="M12 3h2M1 10h1" />
<path stroke="#ffd145" d="M11 4h1M10 5h2M9 6h3M8 7h3M7 8h1M9 8h2M6 9h1M8 9h2M2 10h7M2 11h6" />
<path stroke="#cb8f18" d="M12 4h1M12 5h1M12 6h1M11 7h2M8 8h1M11 8h1M7 9h1M10 9h2M9 10h2M1 11h1M8 11h2M3 12h6" />
</svg>