<svg xmlns="http://www.w3.org/2000/svg" viewBox="0 -0.5 16 16" shape-rendering="crispEdges">
<metadata>Made with Pixels to Svg https://codepen.io/shshaw/pen/XbxvNj</metadata>
<path stroke="#000000" d="M6 1h3M5 2h1M9 2h1M4 3h1M10 3h1M3 4h1M11 4h1M2 5h1M12 5h1M1 6h1M13 6h1M1 7h1M13 7h1M1 8h1M13 8h1M2 9h1M12 9h1M3 10h1M11 10h1M4 11h1M10 11h1M5 12h1M9 12h1M6 13h3" />
<path stroke="#848484" d="M6 2h1M5 3h1M8 3h1M4 4h1M8 4h2M3 5h1M8 5h3M2 6h1M9 6h3M6 8h2M7 9h1M7 10h1M7 11h1M7 12h1" />
<path stroke="#ffffff" d="M7 2h1M7 3h1M7 4h1M7 5h1M7 6h1M7 7h1" />
<path stroke="#666666" d="M8 2h1M9 3h1M10 4h1M11 5h1M12 6h1M3 8h3M8 8h1M4 9h3M5 10h2M6 11h1" />
<path stroke="#b3b3b3" d="M6 3h1M5 4h2M4 5h3M3 6h3M8 6h1M8 7h5" />
<path stroke="#d9d9d9" d="M6 6h1M2 7h5" />
<path stroke="#4a4a4a" d="M2 8h1M9 8h3M3 9h1M8 9h3M4 10h1M8 10h2M5 11h1M8 11h1M6 12h1" />
<path stroke="#252525" d="M12 8h1M11 9h1M10 10h1M9 11h1M8 12h1" />
</svg>