<svg xmlns="http://www.w3.org/2000/svg" viewBox="0 -0.5 16 16" shape-rendering="crispEdges">
<metadata>Made with Pixels to Svg https://codepen.io/shshaw/pen/XbxvNj</metadata>
<path stroke="#000000" d="M1 3h13M1 4h1M13 4h1M1 5h1M13 5h1M1 6h1M13 6h1M1 7h1M13 7h1M1 8h1M13 8h1M1 9h1M13 9h1M1 10h1M13 10h1M1 11h1M13 11h1M1 12h1M13 12h1M1 13h1M13 13h1M1 14h1M13 14h1M1 15h13" />
<path stroke="#75d72c" d="M2 4h11M2 5h1M12 5h1M2 6h1M12 6h1M2 7h1M12 7h1M2 8h11" />
<path stroke="#1b2c0f" d="M3 5h9M3 6h9M3 7h9M10 11h1M9 12h2" />
<path stroke="#2b550d" d="M2 9h4M9 9h4M2 10h4M10 10h3M2 11h4M11 11h2M2 12h4M11 12h2M2 13h4M9 13h4M2 14h4M9 14h4" />
<path stroke="#fc5b5b" d="M6 9h3M7 10h3M7 11h3" />
<path stroke="#9d1818" d="M6 10h1M6 11h1M7 12h2" />
<path stroke="#e62222" d="M6 12h1M6 13h3M6 14h3" />
</svg>