<svg xmlns="http://www.w3.org/2000/svg" viewBox="0 -0.5 16 16" shape-rendering="crispEdges">
<metadata>Made with Pixels to Svg https://codepen.io/shshaw/pen/XbxvNj</metadata>
<path stroke="#000000" d="M3 0h3M9 0h3M2 1h1M6 1h1M8 1h1M12 1h1M0 2h3M7 2h1M12 2h3M0 3h1M14 3h1M0 4h1M14 4h1M0 5h1M14 5h1M0 6h1M14 6h1M0 7h1M14 7h1M0 8h1M14 8h1M0 9h2M13 9h2M1 10h1M13 10h1M1 11h1M13 11h1M1 12h1M13 12h1M1 13h1M13 13h1M1 14h1M13 14h1M1 15h13" />
<path stroke="#fc5b5b" d="M3 1h3M9 1h3M5 2h1M9 2h1M1 4h2M12 4h2M1 5h5M9 5h5M6 6h2" />
<path stroke="#e62222" d="M3 2h1M6 2h1M8 2h1M11 2h1M4 3h3M8 3h3M6 4h1M8 4h1M6 7h3M6 8h3" />
<path stroke="#252525" d="M4 2h1M10 2h1M7 4h1M6 5h1M8 5h1M9 6h1M10 7h1M10 8h1M10 9h1M10 10h1" />
<path stroke="#75d72c" d="M1 3h2M12 3h2M1 6h5M10 6h4" />
<path stroke="#1b2c0f" d="M3 3h1M11 3h1M9 7h1M2 9h4M9 9h1M11 9h2M9 10h1M11 10h1M9 11h1M9 12h1M9 13h1M10 14h2" />
<path stroke="#9d1818" d="M7 3h1M3 4h3M9 4h3M7 5h1M8 6h1M6 10h3M6 11h3M6 12h3M6 13h3M6 14h3" />
<path stroke="#4b8c1c" d="M1 7h5M11 7h3M1 8h5M9 8h1M11 8h3" />
<path stroke="#701313" d="M6 9h3" />
<path stroke="#2b550d" d="M2 10h4M12 10h1M2 11h4M12 11h1M2 12h4M12 12h1M2 13h4M12 13h1M2 14h4M9 14h1M12 14h1" />
<path stroke="#e0a861" d="M10 11h1M10 13h2" />
<path stroke="#f1c085" d="M11 11h1M10 12h2" />
</svg>