<svg xmlns="http://www.w3.org/2000/svg" viewBox="0 -0.5 16 16" shape-rendering="crispEdges">
<metadata>Made with Pixels to Svg https://codepen.io/shshaw/pen/XbxvNj</metadata>
<path stroke="#000000" d="M2 0h7M1 1h1M9 1h1M0 2h1M9 2h1M0 3h1M9 3h1M1 4h1M10 4h2M2 5h1M12 5h1M2 6h1M13 6h1M2 7h1M14 7h1M1 8h1M15 8h1M1 9h1M15 9h1M1 10h1M15 10h1M1 11h1M15 11h1M1 12h1M4 12h1M14 12h1M2 13h2M5 13h1M12 13h2M5 14h1M9 14h3M6 15h3" />
<path stroke="#50a5eb" d="M2 1h2M7 1h2M1 2h5M7 2h1M2 3h3M7 3h1M5 4h3M4 5h6M4 6h7M4 7h2M7 7h2M10 7h2M3 8h1M5 8h2M8 8h2M13 8h1M2 9h1M6 9h1M9 9h1M12 9h1M14 9h1M2 10h1M7 10h1M10 10h1M12 10h1M14 10h1M2 11h1M7 11h1M10 11h1M12 11h1M14 11h1M7 12h1M10 12h1M7 13h1" />
<path stroke="#8dcbff" d="M4 1h3M6 2h1M8 4h2M10 5h2M12 6h1M13 7h1M14 8h1" />
<path stroke="#2183d9" d="M8 2h1M1 3h1M5 3h2M8 3h1M2 4h3M3 5h1M3 6h1M3 7h1M2 8h1M4 8h1M11 8h1M3 9h1M5 9h1M8 9h1M11 9h1M3 10h1M5 10h2M9 10h1M3 11h1M6 11h1M9 11h1M2 12h2M6 12h1M9 12h1M12 12h1M6 13h1M9 13h2M6 14h2" />
<path stroke="#1b456c" d="M11 6h1M6 7h1M9 7h1M12 7h1M7 8h1M10 8h1M12 8h1M4 9h1M7 9h1M10 9h1M13 9h1M4 10h1M8 10h1M11 10h1M13 10h1M4 11h2M8 11h1M11 11h1M13 11h1M5 12h1M8 12h1M11 12h1M13 12h1M8 13h1M11 13h1M8 14h1" />
</svg>