<svg xmlns="http://www.w3.org/2000/svg" viewBox="0 -0.5 16 16" shape-rendering="crispEdges">
<metadata>Made with Pixels to Svg https://codepen.io/shshaw/pen/XbxvNj</metadata>
<path stroke="#000000" d="M10 1h2M8 2h2M12 2h2M7 3h1M14 3h1M6 4h1M13 4h1M15 4h1M5 5h1M12 5h1M14 5h1M5 6h1M12 6h1M4 7h1M12 7h1M2 8h2M13 8h1M1 9h1M14 9h1M0 10h1M15 10h1M0 11h1M15 11h1M1 12h2M13 12h2M3 13h2M10 13h3M5 14h5" />
<path stroke="#b3b3b3" d="M10 2h2M8 3h2M7 4h1M6 5h1M6 6h1M6 7h1M3 9h2M12 9h1M3 10h10M6 11h6M10 12h1M5 13h4" />
<path stroke="#d9d9d9" d="M10 3h1M12 3h1M9 4h4M8 5h1M10 5h2M9 6h2M9 7h2M1 11h2M3 12h7" />
<path stroke="#848484" d="M11 3h1M13 3h1M8 4h1M14 4h1M7 5h1M9 5h1M7 6h2M11 6h1M7 7h2M2 9h1M13 9h1M1 10h2M13 10h2M3 11h3M12 11h3M11 12h2M9 13h1" />
<path stroke="#ffd145" d="M5 7h1M4 8h2" />
<path stroke="#cb8f18" d="M11 7h1M6 8h4M5 9h3" />
<path stroke="#b35f0e" d="M10 8h3M8 9h4" />
</svg>