<svg xmlns="http://www.w3.org/2000/svg" viewBox="0 -0.5 16 16" shape-rendering="crispEdges">
<metadata>Made with Pixels to Svg https://codepen.io/shshaw/pen/XbxvNj</metadata>
<path stroke="#000000" d="M7 0h2M1 1h2M6 1h1M9 1h1M13 1h2M1 2h1M3 2h3M10 2h3M14 2h1M1 3h1M14 3h1M2 4h1M13 4h1M2 5h1M13 5h1M1 6h1M3 6h3M10 6h3M14 6h1M1 7h1M3 7h1M6 7h1M9 7h1M12 7h1M14 7h1M1 8h1M4 8h3M9 8h3M14 8h1M1 9h1M7 9h2M14 9h1M1 10h1M6 10h1M9 10h1M14 10h1M2 11h1M6 11h1M9 11h1M13 11h1M2 12h1M6 12h4M13 12h1M3 13h1M6 13h1M9 13h1M12 13h1M3 14h1M5 14h1M10 14h1M12 14h1M4 15h1M11 15h1" />
<path stroke="#ffffff" d="M7 1h2M2 2h1M6 2h1M9 2h1M13 2h1M3 5h1M12 5h1" />
<path stroke="#8dcbff" d="M7 2h2M2 3h2M7 3h2M12 3h2M2 6h1M7 6h2M13 6h1M7 7h2M3 8h1M12 8h1M4 9h1M6 9h1M9 9h1M11 9h1" />
<path stroke="#2183d9" d="M4 3h1M11 3h1M5 4h2M9 4h2M2 8h1M13 8h1M2 9h2M12 9h2M3 10h2M11 10h2M4 11h1M11 11h1M5 12h1M10 12h1M5 13h1M10 13h1" />
<path stroke="#266ba8" d="M5 3h1M10 3h1M6 5h1M9 5h1M3 11h1M12 11h1M4 12h1M11 12h1" />
<path stroke="#50a5eb" d="M6 3h1M9 3h1M3 4h2M7 4h2M11 4h2M4 5h2M7 5h2M10 5h2M6 6h1M9 6h1M2 7h1M13 7h1M5 9h1M10 9h1M5 10h1M10 10h1M5 11h1M10 11h1" />
<path stroke="#152d43" d="M4 7h2M10 7h2M2 10h1M7 10h2M13 10h1M7 11h2M3 12h1M12 12h1M4 14h1M11 14h1" />
<path stroke="#1b456c" d="M7 8h2M4 13h1M11 13h1" />
</svg>