<svg xmlns="http://www.w3.org/2000/svg" viewBox="0 -0.5 16 16" shape-rendering="crispEdges">
<metadata>Made with Pixels to Svg https://codepen.io/shshaw/pen/XbxvNj</metadata>
<path stroke="#000000" d="M2 3h6M1 4h1M8 4h1M1 5h1M9 5h1M1 6h1M10 6h1M2 7h1M11 7h1M3 8h1M12 8h1M4 9h1M13 9h1M5 10h1M13 10h1M6 11h1M13 11h1M7 12h6" />
<path stroke="#ffbca1" d="M2 4h1M3 5h1M4 6h1M5 7h1M6 8h1M7 9h1" />
<path stroke="#e45219" d="M3 4h4M2 5h1M4 5h1M8 5h1M3 6h1M6 6h2M4 7h1M6 7h1M10 7h1M5 8h1M8 8h4M6 9h1M8 10h5" />
<path stroke="#ff804f" d="M7 4h1M5 5h3M5 6h1M8 6h2M7 7h3M7 8h1M8 9h5M7 10h1M7 11h1" />
<path stroke="#a23f17" d="M2 6h1M3 7h1M4 8h1M5 9h1M6 10h1M8 11h5" />
</svg>