<svg xmlns="http://www.w3.org/2000/svg" viewBox="0 -0.5 16 16" shape-rendering="crispEdges">
<metadata>Made with Pixels to Svg https://codepen.io/shshaw/pen/XbxvNj</metadata>
<path stroke="#000000" d="M7 0h3M6 1h1M10 1h1M5 2h1M8 2h1M11 2h1M5 3h1M7 3h1M9 3h1M11 3h1M5 4h1M8 4h1M11 4h1M6 5h1M10 5h1M7 6h1M9 6h1M7 7h1M9 7h1M7 8h1M9 8h1M6 9h2M9 9h1M6 10h1M9 10h1M7 11h1M9 11h1M5 12h3M9 12h1M5 13h1M9 13h1M5 14h3M9 14h1M7 15h3" />
<path stroke="#ffd145" d="M7 1h3M6 2h1M6 3h1M8 5h1M7 10h1M6 13h1" />
<path stroke="#cb8f18" d="M7 2h1M9 2h2M10 3h1M6 4h1M9 4h1M7 5h1M8 7h1M8 8h1M8 9h1M8 10h1M8 11h1M7 13h2" />
<path stroke="#b35f0e" d="M7 4h1M10 4h1M9 5h1M8 6h1M8 12h1M8 14h1" />
</svg>