<svg xmlns="http://www.w3.org/2000/svg" viewBox="0 -0.5 16 16" shape-rendering="crispEdges">
<metadata>Made with Pixels to Svg https://codepen.io/shshaw/pen/XbxvNj</metadata>
<path stroke="#000000" d="M6 0h5M5 1h1M11 1h1M5 2h1M8 2h1M11 2h1M6 3h1M8 3h1M10 3h1M6 4h1M10 4h1M7 5h1M9 5h1M7 6h1M9 6h1M7 7h1M9 7h1M7 8h1M9 8h1M6 9h2M9 9h1M6 10h1M9 10h1M7 11h1M9 11h1M5 12h3M9 12h1M5 13h1M9 13h1M5 14h3M9 14h1M7 15h3" />
<path stroke="#9b6742" d="M6 1h2M7 10h1M6 13h1" />
<path stroke="#714627" d="M8 1h2M6 2h2M9 2h1M8 4h1M8 6h1M8 7h1M8 8h1M8 9h1M8 10h1M8 11h1M7 13h2" />
<path stroke="#4c2e19" d="M10 1h1M10 2h1M7 3h1M9 3h1M7 4h1M9 4h1M8 5h1M8 12h1M8 14h1" />
</svg>