<svg xmlns="http://www.w3.org/2000/svg" viewBox="0 -0.5 16 16" shape-rendering="crispEdges">
<metadata>Made with Pixels to Svg https://codepen.io/shshaw/pen/XbxvNj</metadata>
<path stroke="#000000" d="M9 3h5M7 4h2M13 4h1M5 5h2M13 5h1M4 6h1M13 6h1M4 7h1M13 7h1M4 8h1M12 8h1M4 9h1M12 9h1M4 10h1M11 10h1M4 11h1M11 11h1M3 12h1M6 12h5M2 13h1M5 13h1M2 14h1M4 14h1M3 15h1" />
<path stroke="#75d72c" d="M9 4h2M7 5h2M12 5h1M5 6h2M11 6h1M5 7h1M10 7h1M9 8h1M8 9h1M7 10h1" />
<path stroke="#4b8c1c" d="M11 4h1M9 5h1M7 6h2M12 6h1M6 7h2M11 7h1M5 8h2M10 8h2M9 9h2M8 10h2" />
<path stroke="#1b2c0f" d="M12 4h1M11 5h1M10 6h1M9 7h1M8 8h1M7 9h1M6 10h1M5 11h1" />
<path stroke="#2b550d" d="M10 5h1M9 6h1M8 7h1M12 7h1M7 8h1M5 9h2M11 9h1M5 10h1M10 10h1M6 11h5" />
<path stroke="#714627" d="M4 12h1M3 13h1" />
<path stroke="#252525" d="M5 12h1" />
<path stroke="#4c2e19" d="M4 13h1M3 14h1" />
</svg>