<svg xmlns="http://www.w3.org/2000/svg" viewBox="0 -0.5 16 16" shape-rendering="crispEdges">
<metadata>Made with Pixels to Svg https://codepen.io/shshaw/pen/XbxvNj</metadata>
<path stroke="#000000" d="M6 0h5M4 1h2M11 1h2M3 2h1M6 2h5M13 2h1M2 3h1M4 3h2M11 3h2M14 3h1M1 4h1M3 4h1M12 4h1M14 4h1M1 5h1M3 5h1M12 5h1M14 5h1M2 6h1M4 6h1M12 6h1M14 6h1M2 7h1M4 7h1M11 7h1M13 7h1M2 8h1M4 8h1M11 8h1M13 8h1M3 9h1M5 9h1M11 9h1M13 9h1M4 10h1M6 10h1M8 10h1M10 10h1M12 10h1M5 11h1M7 11h1M9 11h1M11 11h1M6 12h1M10 12h1M7 13h1M9 13h1M7 14h1M9 14h1M8 15h1" />
<path stroke="#666666" d="M6 1h3M4 2h1M3 6h1M12 7h1" />
<path stroke="#4a4a4a" d="M9 1h2M5 2h1M11 2h2M3 3h1M13 3h1M2 4h1M13 4h1M2 5h1M13 5h1M13 6h1M3 7h1M3 8h1M12 8h1M4 9h1M12 9h1M5 10h1M11 10h1" />
<path stroke="#252525" d="M6 11h1M10 11h1" />
<path stroke="#50a5eb" d="M8 11h1M7 12h1" />
<path stroke="#8dcbff" d="M8 12h1" />
<path stroke="#2183d9" d="M9 12h1M8 13h1" />
<path stroke="#266ba8" d="M8 14h1" />
</svg>