<svg xmlns="http://www.w3.org/2000/svg" viewBox="0 -0.5 16 16" shape-rendering="crispEdges">
<metadata>Made with Pixels to Svg https://codepen.io/shshaw/pen/XbxvNj</metadata>
<path stroke="#000000" d="M5 0h5M3 1h2M10 1h2M2 2h1M5 2h5M12 2h2M1 3h1M3 3h2M10 3h2M14 3h1M1 4h1M3 4h1M12 4h1M14 4h1M1 5h1M3 5h1M12 5h1M14 5h1M1 6h1M3 6h1M11 6h1M13 6h1M2 7h1M4 7h1M11 7h1M13 7h1M2 8h1M4 8h1M11 8h1M13 8h1M3 9h1M5 9h1M7 9h2M10 9h1M12 9h1M4 10h1M6 10h1M9 10h1M11 10h1M5 11h1M10 11h1M5 12h1M10 12h1M6 13h1M9 13h1M7 14h2" />
<path stroke="#e62222" d="M5 1h3M12 6h1M3 7h1" />
<path stroke="#9d1818" d="M8 1h2M3 2h2M10 2h2M2 3h1M12 3h2M2 4h1M13 4h1M2 5h1M13 5h1M2 6h1M12 7h1M3 8h1M12 8h1M4 9h1M11 9h1" />
<path stroke="#701313" d="M5 10h1M10 10h1" />
<path stroke="#ffffff" d="M7 10h1M6 11h2" />
<path stroke="#d9d9d9" d="M8 10h1M8 11h2" />
<path stroke="#b3b3b3" d="M6 12h2M7 13h1" />
<path stroke="#848484" d="M8 12h2M8 13h1" />
</svg>