<svg xmlns="http://www.w3.org/2000/svg" viewBox="0 -0.5 16 16" shape-rendering="crispEdges">
<metadata>Made with Pixels to Svg https://codepen.io/shshaw/pen/XbxvNj</metadata>
<path stroke="#000000" d="M6 1h4M4 2h2M10 2h2M3 3h1M12 3h1M2 4h1M13 4h1M2 5h1M13 5h1M1 6h1M14 6h1M1 7h1M14 7h1M1 8h1M14 8h1M1 9h1M14 9h1M2 10h1M13 10h1M2 11h1M13 11h1M3 12h1M12 12h1M4 13h2M10 13h2M6 14h4" />
<path stroke="#4b8c1c" d="M6 2h4M4 3h2M9 3h2M3 4h1M10 4h2M3 5h1M10 5h2M2 6h1M10 6h2M2 7h1M10 7h2M2 8h1M9 8h3M2 9h2M8 9h3M3 10h7M4 11h5" />
<path stroke="#75d72c" d="M6 3h3M4 4h1M8 4h2M8 5h2M3 6h1M8 6h2M3 7h1M7 7h3M3 8h6M4 9h4" />
<path stroke="#2b550d" d="M11 3h1M12 4h1M12 5h1M12 6h1M12 7h1M12 8h1M11 9h2M10 10h2M3 11h1M9 11h3M4 12h6" />
<path stroke="#b8ff83" d="M5 4h1M4 5h1M6 5h1M5 6h1" />
<path stroke="#99ff4b" d="M6 4h2M7 5h1M4 6h1M6 6h2M4 7h3" />
<path stroke="#ffffff" d="M5 5h1" />
<path stroke="#1b2c0f" d="M13 6h1M13 7h1M13 8h1M13 9h1M12 10h1M12 11h1M10 12h2M6 13h4" />
</svg>