<svg xmlns="http://www.w3.org/2000/svg" viewBox="0 -0.5 16 16" shape-rendering="crispEdges">
<metadata>Made with Pixels to Svg https://codepen.io/shshaw/pen/XbxvNj</metadata>
<path stroke="#0d0d0d" d="M9 3h7M8 4h1M15 4h1M7 5h1M15 5h1M6 6h1M15 6h1M5 7h1M14 7h1M4 8h1M13 8h1M3 9h1M12 9h1M2 10h1M11 10h1M1 11h1M10 11h1M0 12h1M9 12h1M0 13h1M8 13h1M0 14h8" />
<path stroke="#714627" d="M9 4h1M12 4h2M8 5h1M11 5h2M7 6h1M10 6h2M6 7h1M8 7h3M7 8h3M6 9h1M8 9h1M3 10h1M5 10h1M7 10h1M2 11h1M4 11h3" />
<path stroke="#9b6742" d="M10 4h1M14 4h1M9 5h1M13 5h1M8 6h1M12 6h1M7 7h1M11 7h1M6 8h1M10 8h1M5 9h1M9 9h1M4 10h1M8 10h1M3 11h1M7 11h1M1 12h6M1 13h6" />
<path stroke="#4c2e19" d="M11 4h1M10 5h1M14 5h1M9 6h1M13 6h2M12 7h2M5 8h1M11 8h2M4 9h1M7 9h1M10 9h2M6 10h1M9 10h2M8 11h2M7 12h2M7 13h1" />
</svg>