<svg xmlns="http://www.w3.org/2000/svg" viewBox="0 -0.5 16 16" shape-rendering="crispEdges">
<metadata>Made with Pixels to Svg https://codepen.io/shshaw/pen/XbxvNj</metadata>
<path stroke="#000000" d="M5 0h6M5 1h1M10 1h1M4 2h2M10 2h2M4 3h1M11 3h1M4 4h1M11 4h1M4 5h2M10 5h2M5 6h1M10 6h1M5 7h1M10 7h1M4 8h1M11 8h1M4 9h1M11 9h1M3 10h1M12 10h1M3 11h1M12 11h1M3 12h1M12 12h1M3 13h1M12 13h1M4 14h1M11 14h1M5 15h6" />
<path stroke="#4c2e19" d="M6 1h1M9 1h1M6 2h1M9 2h1" />
<path stroke="#9b6742" d="M7 1h2M7 2h2" />
<path stroke="#a9b5ff" d="M5 3h1M10 3h1M5 4h1M7 4h2M10 4h1M6 5h1M9 5h1M6 6h1M9 6h1M6 7h1M9 7h1M5 8h2M9 8h2M5 9h1M10 9h1M4 10h1M11 10h1M4 11h1M11 11h1" />
<path stroke="#b3b3b3" d="M6 3h1M9 3h1" />
<path stroke="#ffffff" d="M7 3h2M7 5h2M7 6h2M7 7h2" />
<path stroke="#6c7ee9" d="M6 4h1M9 4h1M4 12h1M11 12h1M4 13h1M11 13h1M5 14h6" />
<path stroke="#9a5ad3" d="M7 8h2M6 9h3" />
<path stroke="#7e32c2" d="M9 9h1M5 10h5M5 11h2" />
<path stroke="#573379" d="M10 10h1M7 11h4M5 12h6M5 13h6" />
</svg>