<svg xmlns="http://www.w3.org/2000/svg" viewBox="0 -0.5 16 16" shape-rendering="crispEdges">
<metadata>Made with Pixels to Svg https://codepen.io/shshaw/pen/XbxvNj</metadata>
<path stroke="#000000" d="M7 1h2M5 2h2M9 2h2M4 3h1M11 3h1M3 4h1M12 4h1M3 5h1M12 5h1M3 6h1M6 6h4M12 6h1M3 7h1M5 7h1M10 7h1M12 7h1M3 8h1M5 8h1M10 8h1M12 8h1M3 9h1M5 9h1M10 9h1M12 9h1M3 10h1M6 10h4M12 10h1M3 11h1M12 11h1M4 12h1M11 12h1M5 13h6" />
<path stroke="#fc5b5b" d="M7 2h1" />
<path stroke="#e62222" d="M8 2h1" />
<path stroke="#ffd145" d="M5 3h1M10 3h1M5 6h1M10 6h1M5 10h1M10 10h1" />
<path stroke="#b35f0e" d="M6 3h1M9 3h1M4 5h1M11 5h1M4 11h2M10 11h2" />
<path stroke="#9d1818" d="M7 3h1" />
<path stroke="#701313" d="M8 3h1" />
<path stroke="#79420c" d="M4 4h1M7 4h2M11 4h1M6 11h4M5 12h1M10 12h1" />
<path stroke="#cb8f18" d="M5 4h2M9 4h2M5 5h6M4 6h1M11 6h1M4 7h1M11 7h1M4 8h1M11 8h1M4 9h1M11 9h1M4 10h1M11 10h1M6 12h4" />
</svg>