<svg xmlns="http://www.w3.org/2000/svg" viewBox="0 -0.5 16 16" shape-rendering="crispEdges">
<metadata>Made with Pixels to Svg https://codepen.io/shshaw/pen/XbxvNj</metadata>
<path stroke="#000000" d="M3 0h3M2 1h1M6 1h1M1 2h1M7 2h1M1 3h1M7 3h1M0 4h1M8 4h1M0 5h1M9 5h1M0 6h1M10 6h1M1 7h1M11 7h1M2 8h1M12 8h1M3 9h1M13 9h2M3 10h1M15 10h1M2 11h1M15 11h1M2 12h1M5 12h1M14 12h1M2 13h1M4 13h1M6 13h1M14 13h1M2 14h1M4 14h1M7 14h2M13 14h1M3 15h1M9 15h4" />
<path stroke="#e0a861" d="M3 1h3M2 2h1M4 2h1M2 3h2M5 3h1M2 4h1M4 4h1M6 4h1M1 5h1M5 5h1M9 9h1M12 9h1M9 10h2M13 10h1M9 11h1M11 11h1M13 11h1M7 12h2M10 12h1M12 13h1" />
<path stroke="#d59451" d="M3 2h1M5 2h2M4 3h1M6 3h1M3 4h1M5 4h1M3 5h1M8 11h1" />
<path stroke="#c0813e" d="M1 4h1M2 5h1M4 5h1M2 6h3M3 7h1M11 8h1M11 9h1M8 10h1M14 10h1M7 11h1M10 11h1M14 11h1M9 12h1M13 12h1M11 13h1M13 13h1M10 14h3" />
<path stroke="#6c4e2e" d="M7 4h1M6 5h1M5 6h1M4 7h1M9 8h2M8 9h1M7 10h1M12 11h1M11 12h2" />
<path stroke="#252525" d="M7 5h2M6 6h1M5 7h1M9 7h2M4 8h1M8 8h1M7 9h1M4 10h1M6 10h1M5 11h2M6 12h1" />
<path stroke="#f1c085" d="M1 6h1M2 7h1M3 8h1M10 9h1M11 10h2M7 13h3" />
<path stroke="#b3b3b3" d="M7 6h1M6 7h1M5 8h1M4 9h1M3 11h1" />
<path stroke="#848484" d="M8 6h2M7 7h2M6 8h2M5 9h2M5 10h1M4 11h1M3 12h2M3 13h1M3 14h1" />
<path stroke="#84592d" d="M10 13h1M9 14h1" />
</svg>