<svg xmlns="http://www.w3.org/2000/svg" viewBox="0 -0.5 16 16" shape-rendering="crispEdges">
<metadata>Made with Pixels to Svg https://codepen.io/shshaw/pen/XbxvNj</metadata>
<path stroke="#0d0d0d" d="M5 0h6M4 1h1M11 1h1M3 2h1M12 2h1M2 3h1M13 3h1M1 4h1M14 4h1M0 5h1M15 5h1M0 6h1M15 6h1M0 7h1M15 7h1M0 8h1M15 8h1M0 9h1M15 9h1M0 10h1M15 10h1M1 11h1M14 11h1M2 12h1M13 12h1M3 13h1M12 13h1M4 14h1M11 14h1M5 15h6" />
<path stroke="#fef776" d="M5 1h6M5 2h5M6 3h4M6 4h3M1 5h2M1 6h4M1 7h4M1 8h4M1 9h3M1 10h1" />
<path stroke="#ffffff" d="M4 2h1M3 3h3M2 4h4M3 5h3M6 6h2M6 7h2" />
<path stroke="#e0d51a" d="M10 2h1M9 4h1M4 9h1M2 10h1" />
<path stroke="#fff542" d="M11 2h1M10 3h3M10 4h4M6 5h4M11 5h2M5 6h1M8 6h3M5 7h1M8 7h3M5 8h6M5 9h6M3 10h2M6 10h4M2 11h4M3 12h3M4 13h1" />
<path stroke="#8f8914" d="M10 5h1M12 6h2M11 7h3M11 8h3M12 9h2M5 10h1M6 11h3M6 12h4M6 13h4" />
<path stroke="#5b580d" d="M13 5h1M11 6h1M11 9h1M10 10h4M9 11h4M10 12h2M5 13h1M10 13h1M5 14h6" />
<path stroke="#2e2c07" d="M14 5h1M14 6h1M14 7h1M14 8h1M14 9h1M14 10h1M13 11h1M12 12h1M11 13h1" />
</svg>