<svg xmlns="http://www.w3.org/2000/svg" viewBox="0 -0.5 16 16" shape-rendering="crispEdges">
<metadata>Made with Pixels to Svg https://codepen.io/shshaw/pen/XbxvNj</metadata>
<path stroke="#0d0d0d" d="M5 0h6M4 1h1M11 1h1M3 2h1M12 2h1M2 3h1M13 3h1M1 4h1M14 4h1M0 5h1M15 5h1M0 6h1M15 6h1M0 7h1M15 7h1M0 8h1M15 8h1M0 9h1M15 9h1M0 10h1M15 10h1M1 11h1M14 11h1M2 12h1M13 12h1M3 13h1M12 13h1M4 14h1M11 14h1M5 15h6" />
<path stroke="#ca95fa" d="M5 1h6M5 2h5M6 3h4M6 4h3M1 5h2M1 6h4M1 7h4M1 8h4M1 9h3M1 10h1" />
<path stroke="#ffffff" d="M4 2h1M3 3h3M2 4h4M3 5h3M6 6h2M6 7h2" />
<path stroke="#9a5ad3" d="M10 2h2M10 3h3M9 4h5M6 5h4M11 5h2M5 6h1M8 6h3M5 7h1M8 7h3M5 8h6M4 9h7M2 10h3M6 10h4M2 11h4M3 12h3M4 13h1" />
<path stroke="#7e32c2" d="M10 5h1M12 6h2M11 7h3M11 8h3M12 9h2M5 10h1M6 11h3M6 12h4M6 13h4" />
<path stroke="#573379" d="M13 5h2M11 6h1M14 6h1M14 7h1M14 8h1M11 9h1M14 9h1M10 10h5M9 11h5M10 12h3M5 13h1M10 13h2M5 14h6" />
</svg>