<svg xmlns="http://www.w3.org/2000/svg" viewBox="0 -0.5 16 16" shape-rendering="crispEdges">
<metadata>Made with Pixels to Svg https://codepen.io/shshaw/pen/XbxvNj</metadata>
<path stroke="#000000" d="M3 0h9M2 1h1M12 1h1M1 2h1M13 2h1M1 3h1M13 3h1M1 4h1M13 4h1M1 5h1M13 5h1M1 6h1M13 6h1M1 7h1M13 7h1M1 8h1M13 8h1M1 9h1M13 9h1M1 10h1M13 10h1M2 11h1M12 11h1M3 12h1M11 12h1M4 13h1M10 13h1M5 14h1M9 14h1M6 15h3" />
<path stroke="#666666" d="M3 1h5M2 2h1M2 3h1M2 4h1" />
<path stroke="#4a4a4a" d="M8 1h4M12 2h1M12 3h1M2 5h1M2 6h1M2 7h1M2 8h1" />
<path stroke="#e62222" d="M3 2h2M10 3h1M5 4h1M9 4h2M3 7h1M3 8h1M5 8h1M9 8h1M5 9h1" />
<path stroke="#320b0b" d="M5 2h2M8 2h1M10 2h2M3 3h1M7 3h1M6 4h1M8 4h1M3 5h1M5 5h2M8 5h2M11 5h1M4 6h1M10 6h1M5 7h2M8 7h2M11 7h1M6 8h1M8 8h1M11 8h1M6 9h1M8 9h1M11 9h1M3 10h1M6 10h1M8 10h1M11 10h1M4 11h1M6 11h1M8 11h1M10 11h1M5 12h1M7 12h1M9 12h1M6 13h3" />
<path stroke="#701313" d="M7 2h1M4 3h1M6 3h1M8 3h1M3 4h1M11 4h1M3 6h1M11 6h1M4 7h1M10 7h1M4 8h1M4 9h1M10 9h1M4 10h1M10 10h1M5 11h1M9 11h1M6 12h1M8 12h1" />
<path stroke="#9d1818" d="M9 2h1M5 3h1M9 3h1M11 3h1M4 4h1M4 5h1M10 5h1M10 8h1M3 9h1M9 9h1M5 10h1M9 10h1" />
<path stroke="#d9d9d9" d="M7 4h1M7 5h1M5 6h2" />
<path stroke="#252525" d="M12 4h1M12 5h1M12 6h1M12 7h1M12 8h1M2 9h1M12 9h1M2 10h1M12 10h1M3 11h1M11 11h1M4 12h1M10 12h1M5 13h1M9 13h1M6 14h3" />
<path stroke="#ffffff" d="M7 6h1" />
<path stroke="#b3b3b3" d="M8 6h2M7 7h1M7 8h1" />
<path stroke="#848484" d="M7 9h1M7 10h1M7 11h1" />
</svg>