<svg xmlns="http://www.w3.org/2000/svg" viewBox="0 -0.5 16 16" shape-rendering="crispEdges">
<metadata>Made with Pixels to Svg https://codepen.io/shshaw/pen/XbxvNj</metadata>
<path stroke="#000000" d="M5 0h5M3 1h2M10 1h2M2 2h1M12 2h1M1 3h1M13 3h1M1 4h1M13 4h1M0 5h1M14 5h1M0 6h1M14 6h1M0 7h1M14 7h1M0 8h1M14 8h1M0 9h1M14 9h1M1 10h1M13 10h1M1 11h1M13 11h1M2 12h1M12 12h1M3 13h2M10 13h2M5 14h5" />
<path stroke="#ffd145" d="M5 1h3M3 2h1M3 3h1M7 7h1" />
<path stroke="#cb8f18" d="M8 1h2M4 2h1M10 2h2M2 3h1M11 3h2M2 4h1M12 4h1M7 6h1M6 7h1" />
<path stroke="#d9d9d9" d="M5 2h1M9 2h1M2 5h1M6 5h1M8 5h1M12 5h1M5 6h1M9 6h1M5 8h1M9 8h1M6 9h1M8 9h1M12 9h1M5 12h1M9 12h1" />
<path stroke="#b3b3b3" d="M6 2h3M7 3h1M7 4h1M7 5h1M2 6h1M12 6h1M2 7h4M9 7h4M2 8h1M12 8h1M7 9h1M7 10h1M7 11h1M6 12h3" />
<path stroke="#666666" d="M4 3h1M10 3h1M3 4h1M11 4h1M3 10h1M11 10h1M4 11h1M10 11h1" />
<path stroke="#848484" d="M5 3h2M8 3h2M5 4h2M8 4h2M3 5h2M10 5h2M3 6h2M10 6h2M3 8h2M10 8h2M3 9h2M10 9h2M5 10h2M8 10h2M5 11h2M8 11h2" />
<path stroke="#4a4a4a" d="M4 4h1M10 4h1M5 5h1M9 5h1M6 6h1M8 6h1M6 8h1M8 8h1M2 9h1M5 9h1M9 9h1M4 10h1M10 10h1" />
<path stroke="#b35f0e" d="M1 5h1M13 5h1M1 6h1M13 6h1M1 7h1M8 7h1M13 7h1M1 8h1M7 8h1M13 8h1M1 9h1M13 9h1M2 10h1M12 10h1M2 11h2M11 11h2M3 12h2M10 12h2M5 13h5" />
</svg>