<svg xmlns="http://www.w3.org/2000/svg" viewBox="0 -0.5 16 16" shape-rendering="crispEdges">
<metadata>Made with Pixels to Svg https://codepen.io/shshaw/pen/XbxvNj</metadata>
<path stroke="#000000" d="M4 0h8M3 1h1M12 1h1M2 2h1M13 2h1M2 3h1M13 3h1M2 4h1M13 4h1M1 5h1M14 5h1M1 6h1M14 6h1M1 7h1M14 7h1M1 8h1M14 8h1M1 9h1M14 9h1M2 10h1M13 10h1M3 11h1M12 11h1M3 12h1M12 12h1M4 13h1M11 13h1M4 14h8" />
<path stroke="#ffffff" d="M4 1h1M7 1h4M4 2h3M8 2h4M4 3h3M8 3h4M6 4h2M9 4h1M6 5h4M2 6h1M6 6h4M3 7h1M6 7h4M3 8h4M9 8h3M5 9h2M9 9h1M5 11h1M10 11h1M6 12h4" />
<path stroke="#4a4a4a" d="M5 1h2M7 2h1M7 3h1M8 4h1M2 8h1M13 8h1M2 9h2M12 9h2" />
<path stroke="#666666" d="M11 1h1M12 2h1M12 3h1M12 4h1M13 5h1M13 6h1M2 7h1M13 7h1M4 9h1M11 9h1M4 11h1M11 11h1M4 12h1M11 12h1M5 13h1M10 13h1" />
<path stroke="#d9d9d9" d="M3 2h1M3 3h1M3 4h1M5 4h1M10 4h1M3 5h1M3 6h1M7 10h1" />
<path stroke="#b3b3b3" d="M4 4h1M11 4h1M2 5h1M5 5h1M10 5h1M12 5h1M12 6h1M12 7h1M12 8h1M10 9h1M6 10h1M8 10h2M5 12h1M10 12h1" />
<path stroke="#252525" d="M4 5h1M11 5h1M4 6h2M10 6h2M4 7h2M10 7h2M7 8h2M7 9h2M3 10h3M10 10h3M6 11h4" />
<path stroke="#848484" d="M6 13h4" />
</svg>