<svg xmlns="http://www.w3.org/2000/svg" viewBox="0 -0.5 16 16" shape-rendering="crispEdges">
<metadata>Made with Pixels to Svg https://codepen.io/shshaw/pen/XbxvNj</metadata>
<path stroke="#000000" d="M2 0h5M1 1h1M6 1h1M0 2h1M3 2h1M6 2h1M0 3h1M2 3h1M4 3h1M6 3h1M0 4h1M3 4h1M6 4h1M0 5h1M7 5h1M0 6h5M8 6h1M5 7h1M9 7h1M6 8h1M10 8h1M7 9h1M11 9h1M8 10h1M12 10h1M9 11h1M13 11h1M10 12h1M14 12h1M11 13h1M15 13h1M12 14h1M15 14h1M13 15h3" />
<path stroke="#fc5b5b" d="M2 1h2M5 1h1M1 2h1M14 14h1" />
<path stroke="#e62222" d="M4 1h1M5 2h1M1 3h1M5 3h1M1 4h1M5 4h1" />
<path stroke="#701313" d="M2 2h1M4 2h1M2 4h1M4 4h1" />
<path stroke="#9d1818" d="M1 5h4M14 13h1M13 14h1" />
<path stroke="#4a4a4a" d="M5 5h1M13 13h1" />
<path stroke="#252525" d="M6 5h1M5 6h1M13 12h1M12 13h1" />
<path stroke="#ffd145" d="M6 6h1M7 7h1M8 8h1M9 9h1M10 10h1M11 11h1M12 12h1" />
<path stroke="#cb8f18" d="M7 6h1M8 7h1M9 8h1M10 9h1M11 10h1M12 11h1" />
<path stroke="#b35f0e" d="M6 7h1M7 8h1M8 9h1M9 10h1M10 11h1M11 12h1" />
</svg>