<svg xmlns="http://www.w3.org/2000/svg" viewBox="0 -0.5 16 16" shape-rendering="crispEdges">
<metadata>Made with Pixels to Svg https://codepen.io/shshaw/pen/XbxvNj</metadata>
<path stroke="#0d0d0d" d="M6 1h8M0 7h1M0 8h1M0 9h1M0 10h1M0 11h1M0 12h1" />
<path stroke="#000000" d="M5 2h1M14 2h1M4 3h1M14 3h1M3 4h1M14 4h1M2 5h1M14 5h1M1 6h1M14 6h1M14 7h1M13 8h1M12 9h1M11 10h1M10 11h1M9 12h1M1 13h8" />
<path stroke="#d0d0d0" d="M6 2h2M5 3h1M1 7h8" />
<path stroke="#9e9e9e" d="M8 2h1M6 3h1M8 3h3M13 3h1M4 4h1M6 4h2M9 4h1M12 4h1M5 5h2M8 5h1M11 5h1M2 6h2M7 6h1M10 6h1M9 7h1M1 8h7" />
<path stroke="#b4b4b4" d="M9 2h2M13 2h1M7 3h1M12 3h1M5 4h1M8 4h1M11 4h1M3 5h2M7 5h1M10 5h1M5 6h2M9 6h1M8 8h1M8 9h1M8 10h1M8 11h1M8 12h1" />
<path stroke="#818181" d="M11 2h2M11 3h1M10 4h1M9 5h1M4 6h1M8 6h1" />
<path stroke="#636363" d="M13 4h1M12 6h1M11 7h1M10 8h1M9 9h1" />
<path stroke="#6e6e6e" d="M12 5h1M11 6h1M10 7h1M12 7h1M9 8h1M11 8h1M10 9h1M1 10h7M9 10h1M2 11h1M4 11h1M6 11h1" />
<path stroke="#5e5e5e" d="M13 5h1M13 6h1M13 7h1M12 8h1M11 9h1M10 10h1M1 11h1M3 11h1M5 11h1M7 11h1M9 11h1M1 12h7" />
<path stroke="#838383" d="M1 9h1M3 9h1M5 9h1M7 9h1" />
<path stroke="#8d8d8d" d="M2 9h1M4 9h1M6 9h1" />
</svg>