<svg xmlns="http://www.w3.org/2000/svg" viewBox="0 -0.5 16 16" shape-rendering="crispEdges">
<metadata>Made with Pixels to Svg https://codepen.io/shshaw/pen/XbxvNj</metadata>
<path stroke="#000000" d="M1 0h2M1 1h1M3 1h1M1 2h1M4 2h1M1 3h1M5 3h1M1 4h1M6 4h1M1 5h1M7 5h1M2 6h1M8 6h1M3 7h1M9 7h1M11 7h3M4 8h1M10 8h1M13 8h1M5 9h1M13 9h1M6 10h1M12 10h1M7 11h1M12 11h1M6 12h1M13 12h1M6 13h1M9 13h2M14 13h1M6 14h3M11 14h1M14 14h1M12 15h3" />
<path stroke="#d9d9d9" d="M2 1h1M2 2h2M2 3h1M4 3h1M2 4h1M5 4h1M2 5h1M6 5h1M3 6h1M7 6h1M4 7h1M8 7h1M5 8h1M6 9h1" />
<path stroke="#b3b3b3" d="M3 3h1M3 4h2M4 5h2M5 6h2M6 7h2M7 8h2M8 9h1" />
<path stroke="#848484" d="M3 5h1M4 6h1M5 7h1M6 8h1M9 8h1M7 9h1M9 9h1M7 10h2" />
<path stroke="#666666" d="M11 8h2M7 12h1M12 13h1" />
<path stroke="#252525" d="M10 9h1M12 9h1M8 11h1M11 11h1M10 12h2M7 13h2M12 14h2" />
<path stroke="#4a4a4a" d="M11 9h1M11 10h1M8 12h2M12 12h1M11 13h1M13 13h1" />
<path stroke="#50a5eb" d="M9 10h1" />
<path stroke="#2183d9" d="M10 10h1" />
<path stroke="#266ba8" d="M9 11h1" />
<path stroke="#1b456c" d="M10 11h1" />
</svg>