<svg xmlns="http://www.w3.org/2000/svg" viewBox="0 -0.5 16 16" shape-rendering="crispEdges">
<metadata>Made with Pixels to Svg https://codepen.io/shshaw/pen/XbxvNj</metadata>
<path stroke="#000000" d="M0 0h3M0 1h1M3 1h1M0 2h1M4 2h1M1 3h1M5 3h1M2 4h1M6 4h1M3 5h1M7 5h1M4 6h1M8 6h1M5 7h1M9 7h1M11 7h2M6 8h1M10 8h1M13 8h1M7 9h1M13 9h1M8 10h1M12 10h1M7 11h1M13 11h1M7 12h1M10 12h1M14 12h1M8 13h2M11 13h1M15 13h1M12 14h1M15 14h1M13 15h3" />
<path stroke="#d9d9d9" d="M1 1h2M3 2h1M4 3h1M5 4h1M6 5h1M7 6h1M8 7h1" />
<path stroke="#b3b3b3" d="M1 2h2M3 3h1M4 4h1M5 5h1M6 6h1M7 7h1M8 8h1" />
<path stroke="#848484" d="M2 3h1M3 4h1M4 5h1M5 6h1M6 7h1M7 8h1M9 8h1M8 9h1" />
<path stroke="#ffd145" d="M11 8h1M8 11h1" />
<path stroke="#b35f0e" d="M12 8h1M12 9h1M11 10h1M10 11h1M8 12h2" />
<path stroke="#fc5b5b" d="M9 9h1" />
<path stroke="#e62222" d="M10 9h1M9 10h1" />
<path stroke="#cb8f18" d="M11 9h1M9 11h1" />
<path stroke="#9d1818" d="M10 10h1" />
<path stroke="#79420c" d="M11 11h1" />
<path stroke="#3f1b0e" d="M12 11h1M11 12h1M12 13h1M14 13h1M13 14h2" />
<path stroke="#a23f17" d="M12 12h1" />
<path stroke="#7b2f11" d="M13 12h1M13 13h1" />
</svg>