<svg xmlns="http://www.w3.org/2000/svg" viewBox="0 -0.5 16 16" shape-rendering="crispEdges">
<metadata>Made with Pixels to Svg https://codepen.io/shshaw/pen/XbxvNj</metadata>
<path stroke="#000000" d="M0 0h4M0 1h1M4 1h1M0 2h1M5 2h1M0 3h1M6 3h1M1 4h1M7 4h1M2 5h1M8 5h1M11 5h2M3 6h1M9 6h1M11 6h1M13 6h1M4 7h1M10 7h2M13 7h1M5 8h1M13 8h1M6 9h1M13 9h1M7 10h1M12 10h1M5 11h3M13 11h1M5 12h1M10 12h1M14 12h1M6 13h4M11 13h1M15 13h1M12 14h1M15 14h1M13 15h3" />
<path stroke="#d9d9d9" d="M1 1h3M3 2h2M4 3h2M5 4h2M6 5h2M7 6h2M8 7h2" />
<path stroke="#b3b3b3" d="M1 2h2M3 3h1M4 4h1M5 5h1M6 6h1M7 7h1M8 8h2" />
<path stroke="#848484" d="M1 3h2M2 4h2M3 5h2M4 6h2M5 7h2M6 8h2M7 9h2" />
<path stroke="#666666" d="M12 6h1M12 12h1" />
<path stroke="#4a4a4a" d="M12 7h1M11 8h2M11 9h1M8 11h2M6 12h1M13 12h1M13 13h1" />
<path stroke="#252525" d="M10 8h1M12 9h1M8 10h1M11 10h1M10 11h3M7 12h3M11 12h1M12 13h1M14 13h1M13 14h2" />
<path stroke="#8dcbff" d="M9 9h1" />
<path stroke="#2183d9" d="M10 9h1M9 10h1" />
<path stroke="#1b456c" d="M10 10h1" />
</svg>