<svg xmlns="http://www.w3.org/2000/svg" viewBox="0 -0.5 16 16" shape-rendering="crispEdges">
<metadata>Made with Pixels to Svg https://codepen.io/shshaw/pen/XbxvNj</metadata>
<path stroke="#000000" d="M9 1h5M4 2h2M14 2h1M3 3h1M6 3h1M15 3h1M4 4h1M15 4h1M15 5h1" />
<path stroke="#0d0d0d" d="M8 2h1M7 3h1M5 5h1M4 6h1M15 6h1M3 7h1M14 7h1M2 8h1M13 8h1M1 9h1M12 9h1M1 10h1M11 10h1M1 11h1M10 11h1M1 12h1M9 12h1M2 13h1M8 13h1M3 14h5" />
<path stroke="#9b6742" d="M9 2h2M8 3h2M8 4h1M6 5h2M5 6h1M3 8h2" />
<path stroke="#bb7b4d" d="M11 2h2M4 3h2M10 3h2M9 4h2M8 5h2M6 6h3M7 7h1M5 8h2M2 9h2M6 9h2M2 10h1M4 10h2M7 10h1M2 11h1M4 11h2M2 12h2" />
<path stroke="#885f33" d="M13 2h1M12 3h2M11 4h2M10 5h2M9 6h2M8 7h2M8 8h1" />
<path stroke="#714627" d="M14 3h1M5 4h2M13 4h2M12 5h3M11 6h3M10 7h3M9 8h3M9 9h2M9 10h1M7 11h1M6 12h2M3 13h4" />
<path stroke="#4c2e19" d="M7 4h1M4 7h3M7 8h1M4 9h2M8 9h1M3 10h1M6 10h1M8 10h1M3 11h1M6 11h1M8 11h1M4 12h2M7 13h1" />
<path stroke="#342214" d="M14 6h1M13 7h1M12 8h1M11 9h1M10 10h1M9 11h1M8 12h1" />
</svg>